<svg xmlns="http://www.w3.org/2000/svg" viewBox="0 0 800 1000" role="img" aria-labelledby="title desc">
  <title id="title">Foto de perfil de exemplo</title>
  <desc id="desc">Imagem vertical neutra com retrato ilustrado para servir como exemplo no portfólio.</desc>
  <defs>
    <linearGradient id="bg" x1="0" x2="1" y1="0" y2="1">
      <stop offset="0%" stop-color="#eceff4"/>
      <stop offset="100%" stop-color="#dfe5ec"/>
    </linearGradient>
    <linearGradient id="coat" x1="0" x2="1" y1="0" y2="1">
      <stop offset="0%" stop-color="#262f3d"/>
      <stop offset="100%" stop-color="#171d27"/>
    </linearGradient>
  </defs>

  <rect width="800" height="1000" fill="url(#bg)"/>
  <rect x="80" y="72" width="640" height="856" rx="40" fill="#f7f8fa" stroke="#cfd6df" stroke-width="4"/>

  <circle cx="400" cy="355" r="134" fill="#f2d6c7"/>
  <path d="M294 346c0-89 51-150 132-150 74 0 120 50 120 129v36c-24-11-46-32-64-58-22 31-72 65-126 74-26 5-47 7-62 7Z" fill="#1f2530"/>
  <path d="M268 812c16-147 91-236 132-236h1c42 0 117 89 131 236Z" fill="url(#coat)"/>
  <path d="M316 766c29-48 55-72 84-72 30 0 55 24 85 72" fill="none" stroke="#4b5563" stroke-linecap="round" stroke-width="12"/>

  <text x="400" y="902" fill="#7a8594" font-family="IBM Plex Mono, Consolas, monospace" font-size="28" letter-spacing="0.18em" text-anchor="middle">
    FOTO EXEMPLO
  </text>
</svg>
